<svg width="500" height="500" viewBox="0 0 500 500" fill="none" xmlns="http://www.w3.org/2000/svg">
<g clip-path="url(#clip0_126_116)">
<rect width="500" height="500" rx="237" fill="white"/>
<rect x="-112" y="-111" width="723" height="723" rx="64" fill="#FDDE3F"/>
<path d="M101 223.973C101 200.934 116.16 180.641 138.254 174.108L332.254 116.738C365.575 106.884 399 131.856 399 166.603V351.117C399 379.836 375.719 403.117 347 403.117H153C124.281 403.117 101 379.836 101 351.117V223.973Z" fill="#070707"/>
<rect x="299.279" y="200.198" width="41.7432" height="99.7198" rx="20.8716" fill="#FEFEFE"/>
<path d="M223 275C223 261.193 234.193 250 248 250L251 250C264.807 250 276 261.193 276 275C276 288.807 264.807 300 251 300H248C234.193 300 223 288.807 223 275Z" fill="#FEFEFE"/>
<path d="M246.548 202C248.087 199.333 251.936 199.333 253.476 202L272.111 234.276C274.115 237.748 270.334 241.682 266.786 239.817L251.873 231.978C250.708 231.366 249.316 231.366 248.151 231.978L233.238 239.817C229.69 241.682 225.908 237.748 227.913 234.276L246.548 202Z" fill="#FCD53E"/>
</g>
<defs>
<clipPath id="clip0_126_116">
<rect width="500" height="500" rx="237" fill="white"/>
</clipPath>
</defs>
</svg>
